<?xml version="1.0" encoding="UTF-8" standalone="no"?>
<svg
   xmlns:dc="http://purl.org/dc/elements/1.1/"
   xmlns:cc="http://creativecommons.org/ns#"
   xmlns:rdf="http://www.w3.org/1999/02/22-rdf-syntax-ns#"
   xmlns:svg="http://www.w3.org/2000/svg"
   xmlns="http://www.w3.org/2000/svg"
   xmlns:sodipodi="http://sodipodi.sourceforge.net/DTD/sodipodi-0.dtd"
   xmlns:inkscape="http://www.inkscape.org/namespaces/inkscape"
   width="992.36481"
   height="172.45753"
   viewBox="0 0 992.36481 172.45753"
   version="1.1"
   id="svg65"
   sodipodi:docname="otus_engine_2.svg"
   inkscape:version="1.0.1 (c497b03c, 2020-09-10)">
  <metadata
     id="metadata69">
    <rdf:RDF>
      <cc:Work
         rdf:about="">
        <dc:format>image/svg+xml</dc:format>
        <dc:type
           rdf:resource="http://purl.org/dc/dcmitype/StillImage" />
        <dc:title></dc:title>
      </cc:Work>
    </rdf:RDF>
  </metadata>
  <sodipodi:namedview
     pagecolor="#ffffff"
     bordercolor="#666666"
     borderopacity="1"
     objecttolerance="10"
     gridtolerance="10"
     guidetolerance="10"
     inkscape:pageopacity="0"
     inkscape:pageshadow="2"
     inkscape:window-width="1360"
     inkscape:window-height="480"
     id="namedview67"
     showgrid="false"
     inkscape:zoom="0.647"
     inkscape:cx="339.54526"
     inkscape:cy="49.561095"
     inkscape:window-x="535"
     inkscape:window-y="1301"
     inkscape:window-maximized="0"
     inkscape:current-layer="svg65"
     inkscape:document-rotation="0" />
  <defs
     id="defs61">
    <style
       id="style59">
      .cls-1 {
        fill: #f1f2eb;
      }

      .cls-1, .cls-2 {
        fill-rule: evenodd;
      }

      .cls-2 {
        fill: #f05d5e;
      }
    </style>
  </defs>
  <path
     id="otus_2"
     data-name="otus 2"
     class="cls-1"
     d="m 54.297,115.43 q -12.209,0 -18.8,-8.678 -6.591,-8.678 -6.592,-24.672 0,-15.991 6.592,-24.621 6.592,-8.63 18.8,-8.631 12.206,0 18.75,8.631 6.544,8.631 6.543,24.621 0,15.995 -6.543,24.672 -6.543,8.677 -18.75,8.678 z m 54.492,-33.35 q 0,-23.025 -13.476,-39.906 Q 81.837,25.293 54.395,25.293 26.951,25.293 13.477,42.174 0.003,59.055 0,82.08 q 0,23.419 13.477,40.054 13.477,16.635 40.918,16.636 27.44,0 40.918,-16.636 13.478,-16.636 13.476,-40.054 z m 19.828,-32.568 v 65.527 q 0,9.962 4.688,14.746 7.226,7.521 26.953,6.836 l 13.184,-0.488 v -20.8 q -1.37,0.1 -2.784,0.147 -1.414,0.047 -2.685,0.048 -8.5,0 -10.156,-1.611 -1.656,-1.611 -1.661,-8.154 v -56.25 h 17.286 V 29.688 H 156.156 V 0 h -27.539 v 29.688 h -14.845 v 19.824 h 14.843 z m 57.914,-20.8 v 64.16 q 0,18.262 4.576,27.637 8.181,16.992 31.746,16.992 a 42.909,42.909 0 0 0 14.267,-2.148 38.644,38.644 0 0 0 12.612,-8.008 19.57,19.57 0 0 0 3.7,-4.3 q 1.557,-2.44 1.947,-2.93 v 15.042 H 282.43 V 28.711 h -28.223 v 57.91 q 0,10.254 -2.721,16.5 -5.247,11.524 -19.435,11.523 -11.077,0 -14.866,-8.105 -2.138,-4.589 -2.138,-13.672 v -64.16 h -28.516 z m 112.309,72.461 q 0,16.405 11.987,27 11.987,10.595 37.136,10.6 24.657,0 36.448,-10.01 11.791,-10.01 11.792,-25.83 a 26.828,26.828 0 0 0 -8.2,-20.02 q -8.3,-7.91 -24.933,-11.816 -24.948,-5.469 -29.059,-7.715 a 7.262,7.262 0 0 1 -4.113,-6.934 q 0,-3.808 3.868,-6.64 3.868,-2.832 12.974,-2.832 11.064,0 15.67,5.664 a 16.461,16.461 0 0 1 3.035,8.5 h 27.827 q -1.861,-19.53 -14.437,-27.49 -12.576,-7.96 -32.539,-7.959 -21.042,0 -32.639,10.595 -11.597,10.595 -11.6,25.342 0,12.5 7.422,19.141 7.419,6.738 25.564,11.23 25.2,5.958 29.117,8.4 a 7.9,7.9 0 0 1 3.912,7.129 q 0,4.884 -4.857,7.324 -4.857,2.44 -13.1,2.441 -14.033,0 -19.232,-5.566 -2.944,-3.124 -3.827,-10.547 H 298.84 Z" />
  <path
     id="engine_2"
     data-name="engine 2"
     class="cls-2"
     d="m 475.90242,53.98494 q 8.98796,0 15.05669,5.234125 6.06872,5.234123 6.76295,15.34285 h -43.73928 q 1.3821,-9.483237 6.76299,-15.029189 5.38084,-5.545952 15.15665,-5.547786 z m -0.0107,-20.933744 q -21.34551,0 -34.72106,13.463631 -13.37564,13.463629 -13.37467,38.691428 0,26.926345 14.81641,38.873025 a 52.925406,52.925458 0 0 0 34.20018,11.94668 q 23.47873,0 36.52879,-14.16341 8.38815,-8.90635 9.41157,-17.54859 h -25.91825 a 21.34368,21.343705 0 0 1 -5.22768,6.68046 q -5.42302,4.45548 -14.09735,4.45456 a 25.789064,25.78909 0 0 1 -13.99743,-3.65205 q -9.56193,-5.8798 -10.15348,-20.488019 h 70.71703 a 124.06156,124.06167 0 0 0 -0.83643,-19.270966 47.728899,47.728936 0 0 0 -7.7361,-20.073467 39.49756,39.497597 0 0 0 -16.77806,-14.363347 55.284285,55.284344 0 0 0 -22.83688,-4.549935 v 0 z m 111.14543,0.266888 q -11.975,0 -19.78078,5.879791 -4.34725,3.296205 -9.22555,10.778241 V 35.812706 H 533.4474 v 96.917964 h 25.38746 V 80.178487 q 0,-8.997152 2.4762,-14.787064 4.77467,-10.957085 17.59711,-10.957085 10.43341,0 14.14877,7.482955 2.03328,4.098703 2.03328,11.757748 v 59.055629 h 26.01093 V 67.345851 q 0,-18.258446 -9.53818,-26.144024 -9.53816,-7.885579 -24.52619,-7.887412 v 0 z m 95.70735,78.567806 q -13.30771,0 -18.45198,-12.289713 a 37.727472,37.727515 0 0 1 -2.83744,-15.053932 q 0,-9.797817 2.65968,-16.47919 5.05524,-12.560248 18.36205,-12.560248 9.75651,0 15.5666,7.21515 5.81008,7.215149 5.811,21.022707 0,14.698101 -6.12099,21.423496 a 19.495646,19.495667 0 0 1 -14.99064,6.7254 v 0 z m -6.37683,-78.567806 q -19.75146,0 -30.51507,14.743043 -10.76355,14.743041 -10.76444,36.388486 0,22.447947 11.17898,35.585077 11.17906,13.13712 29.88599,13.13896 12.11265,0 19.68629,-5.78991 a 30.961738,30.961765 0 0 0 7.83888,-9.35483 v 6.23656 q 0,13.89559 -3.02657,19.77538 -4.63338,9.17141 -18.35023,9.17141 -9.71069,0 -13.80745,-3.47412 -2.40472,-1.96086 -3.47416,-6.41358 h -27.61501 q 1.24644,14.51927 13.00505,21.82796 11.75866,7.3087 30.37572,7.30502 30.81576,0 41.68949,-16.39113 6.32274,-9.53185 6.32826,-28.32683 V 35.633865 H 704.0408 V 49.619348 Q 698.34558,39.377633 689.09164,35.544902 a 33.392155,33.392188 0 0 0 -12.72078,-2.226818 v 0 z M 774.94509,0.62659141 H 749.20097 V 24.054043 h 25.74412 z M 749.20181,132.73067 h 25.74416 V 35.633865 H 749.20181 Z M 849.65357,33.318084 q -11.97516,0 -19.78183,5.879791 -4.34639,3.296205 -9.22457,10.778241 v -14.16341 h -24.58596 v 96.917964 h 25.38748 V 80.178487 q 0,-8.997152 2.47642,-14.787064 4.77374,-10.957085 17.59706,-10.957085 10.43236,0 14.14778,7.482955 2.0333,4.098703 2.0333,11.757748 v 59.055629 h 26.01093 V 67.345851 q 0,-18.258446 -9.53821,-26.144024 -9.53822,-7.885579 -24.52514,-7.887412 v 0 z m 94.46541,20.666856 q 8.98791,0 15.0576,5.234125 6.06935,5.234123 6.76293,15.34285 h -43.73929 q 1.38121,-9.483237 6.76297,-15.029189 5.38179,-5.545952 15.15397,-5.547786 v 0 z m -0.009,-20.933744 q -21.34556,0 -34.72108,13.463631 -13.37561,13.463629 -13.37561,38.691428 0,26.926345 14.81548,38.873025 a 52.929078,52.929126 0 0 0 34.20105,11.94668 q 23.48309,0 36.52913,-14.16341 8.38761,-8.90635 9.41115,-17.54859 h -25.92023 a 21.356527,21.356546 0 0 1 -5.22756,6.68046 q -5.423,4.45548 -14.09727,4.45456 a 25.789064,25.78909 0 0 1 -13.99748,-3.65205 q -9.56289,-5.8798 -10.1535,-20.488019 h 70.71723 A 124.06156,124.06167 0 0 0 991.45464,72.037945 47.728899,47.728936 0 0 0 983.71865,51.964478 39.503072,39.503099 0 0 0 966.93851,37.601131 55.284285,55.284344 0 0 0 944.10215,33.051196 v 0 z"
     style="stroke-width:0.917141" />
</svg>
