<?xml version="1.0" encoding="UTF-8" standalone="no"?>
<svg
   xmlns:dc="http://purl.org/dc/elements/1.1/"
   xmlns:cc="http://creativecommons.org/ns#"
   xmlns:rdf="http://www.w3.org/1999/02/22-rdf-syntax-ns#"
   xmlns:svg="http://www.w3.org/2000/svg"
   xmlns="http://www.w3.org/2000/svg"
   xmlns:sodipodi="http://sodipodi.sourceforge.net/DTD/sodipodi-0.dtd"
   xmlns:inkscape="http://www.inkscape.org/namespaces/inkscape"
   width="615.57422"
   height="342.47299"
   viewBox="0 0 615.57422 342.47299"
   version="1.1"
   id="svg65"
   sodipodi:docname="otus_engine_2.svg"
   inkscape:version="1.0.1 (c497b03c, 2020-09-10)">
  <metadata
     id="metadata69">
    <rdf:RDF>
      <cc:Work
         rdf:about="">
        <dc:format>image/svg+xml</dc:format>
        <dc:type
           rdf:resource="http://purl.org/dc/dcmitype/StillImage" />
      </cc:Work>
    </rdf:RDF>
  </metadata>
  <sodipodi:namedview
     pagecolor="#ffffff"
     bordercolor="#666666"
     borderopacity="1"
     objecttolerance="10"
     gridtolerance="10"
     guidetolerance="10"
     inkscape:pageopacity="0"
     inkscape:pageshadow="2"
     inkscape:window-width="709"
     inkscape:window-height="480"
     id="namedview67"
     showgrid="false"
     inkscape:zoom="0.647"
     inkscape:cx="401.252"
     inkscape:cy="169.757"
     inkscape:window-x="730"
     inkscape:window-y="1335"
     inkscape:window-maximized="0"
     inkscape:current-layer="svg65" />
  <defs
     id="defs61">
    <style
       id="style59">
      .cls-1 {
        fill: #f1f2eb;
      }

      .cls-1, .cls-2 {
        fill-rule: evenodd;
      }

      .cls-2 {
        fill: #f05d5e;
      }
    </style>
  </defs>
  <path
     id="otus_2"
     data-name="otus 2"
     class="cls-1"
     d="m 56.177,115.43 q -12.209,0 -18.8,-8.678 -6.591,-8.678 -6.592,-24.672 0,-15.991 6.592,-24.621 6.592,-8.63 18.8,-8.631 12.206,0 18.75,8.631 6.544,8.631 6.543,24.621 0,15.995 -6.543,24.672 -6.543,8.677 -18.75,8.678 z m 54.492,-33.35 q 0,-23.025 -13.476,-39.906 Q 83.717,25.293 56.275,25.293 28.831,25.293 15.357,42.174 1.8830001,59.055 1.8800001,82.08 q 0,23.419 13.4769999,40.054 13.477,16.635 40.918,16.636 27.44,0 40.918,-16.636 13.478,-16.636 13.476,-40.054 z m 19.828,-32.568 v 65.527 q 0,9.962 4.688,14.746 7.226,7.521 26.953,6.836 l 13.184,-0.488 v -20.8 q -1.37,0.1 -2.784,0.147 -1.414,0.047 -2.685,0.048 -8.5,0 -10.156,-1.611 -1.656,-1.611 -1.661,-8.154 v -56.25 h 17.286 V 29.688 H 158.036 V 0 h -27.539 v 29.688 h -14.845 v 19.824 h 14.843 z m 57.914,-20.8 v 64.16 q 0,18.262 4.576,27.637 8.181,16.992 31.746,16.992 a 42.909,42.909 0 0 0 14.267,-2.148 38.644,38.644 0 0 0 12.612,-8.008 19.57,19.57 0 0 0 3.7,-4.3 q 1.557,-2.44 1.947,-2.93 v 15.042 H 284.31 V 28.711 h -28.223 v 57.91 q 0,10.254 -2.721,16.5 -5.247,11.524 -19.435,11.523 -11.077,0 -14.866,-8.105 -2.138,-4.589 -2.138,-13.672 v -64.16 h -28.516 z m 112.309,72.461 q 0,16.405 11.987,27 11.987,10.595 37.136,10.6 24.657,0 36.448,-10.01 11.791,-10.01 11.792,-25.83 a 26.828,26.828 0 0 0 -8.2,-20.02 q -8.3,-7.91 -24.933,-11.816 -24.948,-5.469 -29.059,-7.715 a 7.262,7.262 0 0 1 -4.113,-6.934 q 0,-3.808 3.868,-6.64 3.868,-2.832 12.974,-2.832 11.064,0 15.67,5.664 a 16.461,16.461 0 0 1 3.035,8.5 h 27.827 q -1.861,-19.53 -14.437,-27.49 -12.576,-7.96 -32.539,-7.959 -21.042,0 -32.639,10.595 -11.597,10.595 -11.6,25.342 0,12.5 7.422,19.141 7.419,6.738 25.564,11.23 25.2,5.958 29.117,8.4 a 7.9,7.9 0 0 1 3.912,7.129 q 0,4.884 -4.857,7.324 -4.857,2.44 -13.1,2.441 -14.033,0 -19.232,-5.566 -2.944,-3.124 -3.827,-10.547 H 300.72 Z" />
  <path
     id="engine_2"
     data-name="engine 2"
     class="cls-2"
     d="m 52.452,213.297 q 9.8,0 16.417,5.707 6.617,5.707 7.374,16.729 H 28.552 q 1.507,-10.34 7.374,-16.387 5.867,-6.047 16.526,-6.049 z m -0.011,-22.825 q -23.274,0 -37.858,14.68 Q -9.9993144e-4,219.832 6.8563565e-8,247.339 6.8563565e-8,276.698 16.155,289.724 a 57.707,57.707 0 0 0 37.29,13.026 q 25.6,0 39.829,-15.443 9.146,-9.711 10.262,-19.134 h -28.26 a 23.272,23.272 0 0 1 -5.7,7.284 q -5.913,4.858 -15.371,4.857 A 28.119,28.119 0 0 1 38.943,276.332 Q 28.517,269.921 27.872,253.993 h 77.106 a 135.27,135.27 0 0 0 -0.912,-21.012 52.041,52.041 0 0 0 -8.435,-21.887 43.066,43.066 0 0 0 -18.294,-15.661 60.279,60.279 0 0 0 -24.9,-4.961 v 0 z m 121.187,0.291 q -13.057,0 -21.568,6.411 -4.74,3.594 -10.059,11.752 v -15.443 h -26.805 v 105.674 h 27.681 v -57.3 q 0,-9.81 2.7,-16.123 5.206,-11.947 19.187,-11.947 11.376,0 15.427,8.159 2.217,4.469 2.217,12.82 v 64.391 h 28.361 v -71.292 q 0,-19.908 -10.4,-28.506 -10.4,-8.598 -26.742,-8.6 v 0 z m 104.354,85.666 q -14.51,0 -20.119,-13.4 a 41.136,41.136 0 0 1 -3.094,-16.414 q 0,-10.683 2.9,-17.968 5.512,-13.695 20.021,-13.695 10.638,0 16.973,7.867 6.335,7.867 6.336,22.922 0,16.026 -6.674,23.359 a 21.257,21.257 0 0 1 -16.345,7.333 v 0 z m -6.953,-85.666 q -21.536,0 -33.272,16.075 -11.736,16.075 -11.737,39.676 0,24.476 12.189,38.8 12.189,14.324 32.586,14.326 13.207,0 21.465,-6.313 a 33.759,33.759 0 0 0 8.547,-10.2 v 6.8 q 0,15.151 -3.3,21.562 -5.052,10 -20.008,10 -10.588,0 -15.055,-3.788 -2.622,-2.138 -3.788,-6.993 h -30.11 q 1.359,15.831 14.18,23.8 12.821,7.969 33.12,7.965 33.6,0 45.456,-17.872 6.894,-10.393 6.9,-30.886 V 193.288 h -27 v 15.249 q -6.21,-11.167 -16.3,-15.346 a 36.409,36.409 0 0 0 -13.87,-2.428 v 0 z m 107.483,-35.645 h -28.07 v 25.544 h 28.07 z m -28.069,144.039 h 28.07 V 193.288 h -28.07 z M 459.97,190.763 q -13.057,0 -21.569,6.411 -4.739,3.594 -10.058,11.752 v -15.443 h -26.807 v 105.674 h 27.681 v -57.3 q 0,-9.81 2.7,-16.123 5.205,-11.947 19.187,-11.947 11.375,0 15.426,8.159 2.217,4.469 2.217,12.82 v 64.391 h 28.361 v -71.292 q 0,-19.908 -10.4,-28.506 -10.4,-8.598 -26.741,-8.6 v 0 z m 103,22.534 q 9.8,0 16.418,5.707 6.618,5.707 7.374,16.729 h -47.691 q 1.506,-10.34 7.374,-16.387 5.868,-6.047 16.523,-6.049 v 0 z m -0.01,-22.825 q -23.274,0 -37.858,14.68 -14.584,14.68 -14.584,42.187 0,29.359 16.154,42.385 a 57.711,57.711 0 0 0 37.291,13.026 q 25.605,0 39.829,-15.443 9.145,-9.711 10.262,-19.134 h -28.262 a 23.286,23.286 0 0 1 -5.7,7.284 q -5.913,4.858 -15.371,4.857 a 28.119,28.119 0 0 1 -15.262,-3.982 q -10.427,-6.411 -11.071,-22.339 h 77.106 a 135.27,135.27 0 0 0 -0.912,-21.012 52.041,52.041 0 0 0 -8.435,-21.887 43.072,43.072 0 0 0 -18.295,-15.661 60.279,60.279 0 0 0 -24.9,-4.961 v 0 z" />
</svg>
